<svg width="18" height="18" viewBox="0 0 18 18" fill="none" xmlns="http://www.w3.org/2000/svg">
<path d="M3 0C2.20435 0 1.44129 0.316071 0.87868 0.87868C0.316071 1.44129 0 2.20435 0 3V5.25C0 6.04565 0.316071 6.80871 0.87868 7.37132C1.44129 7.93393 2.20435 8.25 3 8.25H5.25C6.04565 8.25 6.80871 7.93393 7.37132 7.37132C7.93393 6.80871 8.25 6.04565 8.25 5.25V3C8.25 2.20435 7.93393 1.44129 7.37132 0.87868C6.80871 0.316071 6.04565 0 5.25 0H3ZM12.75 0C11.9544 0 11.1913 0.316071 10.6287 0.87868C10.0661 1.44129 9.75 2.20435 9.75 3V5.25C9.75 6.04565 10.0661 6.80871 10.6287 7.37132C11.1913 7.93393 11.9544 8.25 12.75 8.25H15C15.7956 8.25 16.5587 7.93393 17.1213 7.37132C17.6839 6.80871 18 6.04565 18 5.25V3C18 2.20435 17.6839 1.44129 17.1213 0.87868C16.5587 0.316071 15.7956 0 15 0H12.75ZM3 9.75C2.20435 9.75 1.44129 10.0661 0.87868 10.6287C0.316071 11.1913 0 11.9544 0 12.75V15C0 15.7956 0.316071 16.5587 0.87868 17.1213C1.44129 17.6839 2.20435 18 3 18H5.25C6.04565 18 6.80871 17.6839 7.37132 17.1213C7.93393 16.5587 8.25 15.7956 8.25 15V12.75C8.25 11.9544 7.93393 11.1913 7.37132 10.6287C6.80871 10.0661 6.04565 9.75 5.25 9.75H3ZM14.625 10.5C14.625 10.3011 14.546 10.1103 14.4053 9.96967C14.2647 9.82902 14.0739 9.75 13.875 9.75C13.6761 9.75 13.4853 9.82902 13.3447 9.96967C13.204 10.1103 13.125 10.3011 13.125 10.5V13.125H10.5C10.3011 13.125 10.1103 13.204 9.96967 13.3447C9.82902 13.4853 9.75 13.6761 9.75 13.875C9.75 14.0739 9.82902 14.2647 9.96967 14.4053C10.1103 14.546 10.3011 14.625 10.5 14.625H13.125V17.25C13.125 17.4489 13.204 17.6397 13.3447 17.7803C13.4853 17.921 13.6761 18 13.875 18C14.0739 18 14.2647 17.921 14.4053 17.7803C14.546 17.6397 14.625 17.4489 14.625 17.25V14.625H17.25C17.4489 14.625 17.6397 14.546 17.7803 14.4053C17.921 14.2647 18 14.0739 18 13.875C18 13.6761 17.921 13.4853 17.7803 13.3447C17.6397 13.204 17.4489 13.125 17.25 13.125H14.625V10.5Z" fill="black"/>
</svg>
