<svg width="24" height="24" viewBox="0 0 24 24" fill="none" xmlns="http://www.w3.org/2000/svg">
<path fill-rule="evenodd" clip-rule="evenodd" d="M2 9V18C2 19.1046 2.89543 20 4 20H20C21.1046 20 22 19.1046 22 18V9C22 7.89543 21.1046 7 20 7H18.0704C17.4017 7 16.7772 6.6658 16.4063 6.1094L15.5937 4.8906C15.2228 4.3342 14.5983 4 13.9296 4H10.0704C9.40166 4 8.7772 4.3342 8.40627 4.8906L7.59373 6.1094C7.2228 6.6658 6.59834 7 5.92963 7H4C2.89543 7 2 7.89543 2 9ZM12 16C13.6569 16 15 14.6569 15 13C15 11.3431 13.6569 10 12 10C10.3431 10 9 11.3431 9 13C9 14.6569 10.3431 16 12 16Z" fill="white"/>
</svg>
