<svg width="18" height="18" viewBox="0 0 18 18" fill="none" xmlns="http://www.w3.org/2000/svg">
<path fill-rule="evenodd" clip-rule="evenodd" d="M3.34135 2.55285C3.51072 2.21403 3.85701 2 4.23581 2H7.99841V4H2.6179L3.34135 2.55285ZM9.99841 4V2H13.7613C14.1401 2 14.4864 2.21403 14.6557 2.55285L15.3792 4H9.99841ZM2 6V15C2 15.5523 2.44772 16 3 16H14.9971C15.5494 16 15.9971 15.5523 15.9971 15V13C15.9971 12.4477 15.5494 12 14.9971 12H9.41284L10.7056 13.293C11.096 13.6835 11.096 14.3167 10.7054 14.7072C10.3149 15.0977 9.68171 15.0976 9.29122 14.707L6.29176 11.707L5.58485 11L6.29176 10.293L9.29122 7.29296C9.68171 6.9024 10.3149 6.90234 10.7054 7.29283C11.096 7.68332 11.096 8.31648 10.7056 8.70704L9.41284 10H14.9971C16.6539 10 17.9971 11.3431 17.9971 13V15C17.9971 16.6569 16.6539 18 14.9971 18H3C1.34314 18 0 16.6569 0 15V5.47206C0 5.0064 0.108401 4.54713 0.316621 4.13061L1.55243 1.65855C2.06056 0.642094 3.09941 0 4.23581 0H13.7613C14.8977 0 15.9365 0.642096 16.4447 1.65855L17.6805 4.13061C17.8887 4.54713 17.9971 5.0064 17.9971 5.47206V8C17.9971 8.55228 17.5494 9 16.9971 9C16.4448 9 15.9971 8.55228 15.9971 8V6H2Z" fill="black"/>
</svg>
