<svg width="18" height="18" viewBox="0 0 18 18" fill="none" xmlns="http://www.w3.org/2000/svg">
<path d="M9 9C7.7625 9 6.70312 8.55937 5.82187 7.67812C4.94062 6.79688 4.5 5.7375 4.5 4.5C4.5 3.2625 4.94062 2.20312 5.82187 1.32187C6.70312 0.440625 7.7625 0 9 0C10.2375 0 11.2969 0.440625 12.1781 1.32187C13.0594 2.20312 13.5 3.2625 13.5 4.5C13.5 5.7375 13.0594 6.79688 12.1781 7.67812C11.2969 8.55937 10.2375 9 9 9ZM0 18V14.85C0 14.2125 0.164062 13.6266 0.492188 13.0922C0.820312 12.5578 1.25625 12.15 1.8 11.8687C2.9625 11.2875 4.14375 10.8516 5.34375 10.5609C6.54375 10.2703 7.7625 10.125 9 10.125C10.2375 10.125 11.4562 10.2703 12.6562 10.5609C13.8562 10.8516 15.0375 11.2875 16.2 11.8687C16.7437 12.15 17.1797 12.5578 17.5078 13.0922C17.8359 13.6266 18 14.2125 18 14.85V18H0Z" fill="#1F8A70"/>
</svg>
